<svg width="352" height="139" viewBox="0 0 352 139" fill="none" xmlns="http://www.w3.org/2000/svg">
<rect x="125.5" y="1.6012" width="101" height="101" rx="50.5" stroke="#96E56E" stroke-width="2" stroke-dasharray="12 12"/>
<path d="M194.752 39.5367C195.185 39.9678 195.528 40.4801 195.762 41.0442C195.996 41.6083 196.117 42.213 196.117 42.8238C196.117 43.4346 195.996 44.0393 195.762 44.6034C195.528 45.1675 195.185 45.6798 194.752 46.1109L173.096 67.7672C172.665 68.1998 172.152 68.5431 171.588 68.7773C171.024 69.0115 170.419 69.1321 169.809 69.1321C169.198 69.1321 168.593 69.0115 168.029 68.7773C167.465 68.5431 166.953 68.1998 166.522 67.7672L157.24 58.4859C156.809 58.0543 156.466 57.5418 156.233 56.9778C155.999 56.4138 155.879 55.8093 155.879 55.1988C155.879 54.5883 155.999 53.9838 156.233 53.4198C156.466 52.8558 156.809 52.3434 157.24 51.9117C157.672 51.48 158.184 51.1376 158.748 50.904C159.312 50.6704 159.917 50.5501 160.527 50.5501C161.138 50.5501 161.742 50.6704 162.306 50.904C162.87 51.1376 163.383 51.48 163.815 51.9117L169.813 57.902L188.186 39.5251C188.617 39.0944 189.13 38.753 189.693 38.5205C190.257 38.2879 190.861 38.1688 191.471 38.1699C192.081 38.1709 192.685 38.2922 193.248 38.5267C193.811 38.7613 194.322 39.1045 194.752 39.5367ZM217.766 52.1012C217.766 60.3617 215.316 68.4366 210.727 75.3049C206.138 82.1733 199.615 87.5265 191.983 90.6876C184.351 93.8487 175.954 94.6758 167.852 93.0643C159.75 91.4528 152.308 87.475 146.467 81.634C140.626 75.7929 136.648 68.351 135.037 60.2493C133.425 52.1475 134.252 43.7499 137.414 36.1182C140.575 28.4865 145.928 21.9636 152.796 17.3743C159.665 12.7851 167.74 10.3356 176 10.3356C187.073 10.3479 197.689 14.7521 205.519 22.582C213.349 30.4119 217.753 41.028 217.766 52.1012ZM208.484 52.1012C208.484 45.6764 206.579 39.3959 203.01 34.0538C199.44 28.7118 194.367 24.5482 188.431 22.0895C182.496 19.6309 175.964 18.9876 169.663 20.241C163.361 21.4944 157.573 24.5883 153.03 29.1313C148.487 33.6743 145.393 39.4625 144.14 45.7638C142.886 52.0652 143.53 58.5967 145.988 64.5324C148.447 70.4682 152.611 75.5415 157.953 79.111C163.295 82.6804 169.575 84.5856 176 84.5856C184.613 84.5764 192.87 81.1509 198.96 75.0609C205.05 68.9709 208.475 60.7138 208.484 52.1012Z" fill="#96E56E"/>
<path d="M41.6268 120.056L45.4123 131.505H45.5614L49.3398 120.056H52.2376L47.1097 134.601H43.8569L38.7362 120.056H41.6268ZM54.0398 134.601V123.692H56.6108V134.601H54.0398ZM55.3324 122.144C54.9252 122.144 54.5748 122.009 54.2812 121.739C53.9877 121.464 53.8409 121.135 53.8409 120.752C53.8409 120.364 53.9877 120.034 54.2812 119.765C54.5748 119.49 54.9252 119.353 55.3324 119.353C55.7443 119.353 56.0947 119.49 56.3835 119.765C56.6771 120.034 56.8239 120.364 56.8239 120.752C56.8239 121.135 56.6771 121.464 56.3835 121.739C56.0947 122.009 55.7443 122.144 55.3324 122.144ZM63.3029 134.793C62.4459 134.793 61.6789 134.573 61.0018 134.132C60.3247 133.692 59.7897 133.053 59.3967 132.215C59.0037 131.377 58.8072 130.359 58.8072 129.161C58.8072 127.949 59.006 126.926 59.4038 126.093C59.8062 125.255 60.3484 124.623 61.0302 124.196C61.712 123.765 62.4719 123.55 63.31 123.55C63.9492 123.55 64.4748 123.659 64.8867 123.877C65.2987 124.09 65.6254 124.348 65.8668 124.651C66.1083 124.949 66.2953 125.231 66.4279 125.496H66.5344V120.056H69.1126V134.601H66.5842V132.882H66.4279C66.2953 133.148 66.1036 133.429 65.8526 133.728C65.6017 134.021 65.2702 134.272 64.8583 134.48C64.4464 134.689 63.9279 134.793 63.3029 134.793ZM64.0202 132.684C64.5647 132.684 65.0288 132.537 65.4123 132.243C65.7958 131.945 66.087 131.531 66.2859 131C66.4847 130.47 66.5842 129.852 66.5842 129.147C66.5842 128.441 66.4847 127.828 66.2859 127.307C66.0917 126.786 65.8029 126.381 65.4194 126.093C65.0406 125.804 64.5742 125.659 64.0202 125.659C63.4473 125.659 62.9691 125.809 62.5856 126.107C62.2021 126.405 61.9132 126.817 61.7191 127.343C61.525 127.868 61.4279 128.47 61.4279 129.147C61.4279 129.828 61.525 130.437 61.7191 130.972C61.918 131.502 62.2092 131.921 62.5927 132.229C62.9809 132.532 63.4568 132.684 64.0202 132.684ZM76.6818 134.814C75.5881 134.814 74.6435 134.587 73.848 134.132C73.0573 133.673 72.4489 133.024 72.0227 132.186C71.5966 131.344 71.3835 130.352 71.3835 129.211C71.3835 128.088 71.5966 127.104 72.0227 126.256C72.4536 125.404 73.0549 124.741 73.8267 124.267C74.5985 123.789 75.5052 123.55 76.5469 123.55C77.2192 123.55 77.8537 123.659 78.4503 123.877C79.0516 124.09 79.5819 124.421 80.0412 124.871C80.5052 125.321 80.8698 125.894 81.1349 126.59C81.4001 127.281 81.5327 128.105 81.5327 129.061V129.85H72.5909V128.117H79.0682C79.0634 127.624 78.9569 127.186 78.7486 126.803C78.5402 126.415 78.2491 126.109 77.875 125.887C77.5057 125.664 77.0748 125.553 76.5824 125.553C76.0568 125.553 75.5952 125.681 75.1974 125.936C74.7997 126.187 74.4896 126.519 74.267 126.931C74.0492 127.338 73.938 127.785 73.9332 128.273V129.786C73.9332 130.42 74.0492 130.965 74.2812 131.419C74.5133 131.869 74.8376 132.215 75.2543 132.456C75.6709 132.693 76.1586 132.811 76.7173 132.811C77.0914 132.811 77.4299 132.759 77.733 132.655C78.036 132.546 78.2988 132.388 78.5213 132.179C78.7438 131.971 78.9119 131.713 79.0256 131.405L81.4261 131.675C81.2746 132.31 80.9858 132.864 80.5597 133.337C80.1383 133.806 79.5985 134.17 78.9403 134.431C78.2822 134.686 77.5294 134.814 76.6818 134.814ZM88.4663 134.814C87.4009 134.814 86.4776 134.58 85.6964 134.111C84.9151 133.642 84.3091 132.987 83.8782 132.144C83.4521 131.301 83.239 130.316 83.239 129.189C83.239 128.062 83.4521 127.075 83.8782 126.228C84.3091 125.38 84.9151 124.722 85.6964 124.253C86.4776 123.784 87.4009 123.55 88.4663 123.55C89.5316 123.55 90.4549 123.784 91.2362 124.253C92.0174 124.722 92.6211 125.38 93.0472 126.228C93.4781 127.075 93.6935 128.062 93.6935 129.189C93.6935 130.316 93.4781 131.301 93.0472 132.144C92.6211 132.987 92.0174 133.642 91.2362 134.111C90.4549 134.58 89.5316 134.814 88.4663 134.814ZM88.4805 132.755C89.0581 132.755 89.5411 132.596 89.9293 132.279C90.3176 131.957 90.6064 131.526 90.7958 130.986C90.9899 130.446 91.087 129.845 91.087 129.182C91.087 128.515 90.9899 127.911 90.7958 127.371C90.6064 126.827 90.3176 126.393 89.9293 126.071C89.5411 125.749 89.0581 125.588 88.4805 125.588C87.8886 125.588 87.3962 125.749 87.0032 126.071C86.6149 126.393 86.3237 126.827 86.1296 127.371C85.9402 127.911 85.8455 128.515 85.8455 129.182C85.8455 129.845 85.9402 130.446 86.1296 130.986C86.3237 131.526 86.6149 131.957 87.0032 132.279C87.3962 132.596 87.8886 132.755 88.4805 132.755ZM100.837 134.601V123.692H103.33V125.51H103.443C103.642 124.881 103.983 124.395 104.466 124.054C104.954 123.709 105.51 123.536 106.135 123.536C106.277 123.536 106.436 123.543 106.611 123.557C106.791 123.567 106.94 123.583 107.058 123.607V125.972C106.949 125.934 106.777 125.901 106.54 125.873C106.308 125.839 106.083 125.823 105.865 125.823C105.396 125.823 104.975 125.925 104.601 126.128C104.232 126.327 103.94 126.604 103.727 126.959C103.514 127.314 103.408 127.724 103.408 128.188V134.601H100.837ZM113.147 134.814C112.053 134.814 111.108 134.587 110.313 134.132C109.522 133.673 108.914 133.024 108.488 132.186C108.061 131.344 107.848 130.352 107.848 129.211C107.848 128.088 108.061 127.104 108.488 126.256C108.918 125.404 109.52 124.741 110.292 124.267C111.063 123.789 111.97 123.55 113.012 123.55C113.684 123.55 114.319 123.659 114.915 123.877C115.516 124.09 116.047 124.421 116.506 124.871C116.97 125.321 117.335 125.894 117.6 126.59C117.865 127.281 117.998 128.105 117.998 129.061V129.85H109.056V128.117H115.533C115.528 127.624 115.422 127.186 115.213 126.803C115.005 126.415 114.714 126.109 114.34 125.887C113.971 125.664 113.54 125.553 113.047 125.553C112.522 125.553 112.06 125.681 111.662 125.936C111.265 126.187 110.954 126.519 110.732 126.931C110.514 127.338 110.403 127.785 110.398 128.273V129.786C110.398 130.42 110.514 130.965 110.746 131.419C110.978 131.869 111.302 132.215 111.719 132.456C112.136 132.693 112.623 132.811 113.182 132.811C113.556 132.811 113.895 132.759 114.198 132.655C114.501 132.546 114.764 132.388 114.986 132.179C115.209 131.971 115.377 131.713 115.49 131.405L117.891 131.675C117.739 132.31 117.451 132.864 117.025 133.337C116.603 133.806 116.063 134.17 115.405 134.431C114.747 134.686 113.994 134.814 113.147 134.814ZM124.931 134.814C123.842 134.814 122.907 134.575 122.126 134.097C121.349 133.619 120.75 132.958 120.329 132.115C119.912 131.268 119.704 130.292 119.704 129.189C119.704 128.081 119.917 127.104 120.343 126.256C120.769 125.404 121.371 124.741 122.147 124.267C122.928 123.789 123.852 123.55 124.917 123.55C125.802 123.55 126.586 123.713 127.268 124.04C127.954 124.362 128.501 124.819 128.908 125.411C129.316 125.998 129.548 126.685 129.604 127.471H127.147C127.048 126.945 126.811 126.507 126.437 126.157C126.067 125.801 125.573 125.624 124.952 125.624C124.427 125.624 123.965 125.766 123.567 126.05C123.17 126.329 122.86 126.732 122.637 127.257C122.419 127.783 122.31 128.413 122.31 129.147C122.31 129.89 122.419 130.529 122.637 131.064C122.855 131.595 123.16 132.004 123.553 132.293C123.951 132.577 124.417 132.719 124.952 132.719C125.331 132.719 125.67 132.648 125.968 132.506C126.271 132.359 126.524 132.149 126.728 131.874C126.932 131.599 127.071 131.265 127.147 130.873H129.604C129.543 131.644 129.316 132.328 128.923 132.925C128.53 133.517 127.995 133.981 127.317 134.317C126.64 134.649 125.845 134.814 124.931 134.814ZM136.474 134.814C135.409 134.814 134.485 134.58 133.704 134.111C132.923 133.642 132.317 132.987 131.886 132.144C131.46 131.301 131.247 130.316 131.247 129.189C131.247 128.062 131.46 127.075 131.886 126.228C132.317 125.38 132.923 124.722 133.704 124.253C134.485 123.784 135.409 123.55 136.474 123.55C137.539 123.55 138.463 123.784 139.244 124.253C140.025 124.722 140.629 125.38 141.055 126.228C141.486 127.075 141.701 128.062 141.701 129.189C141.701 130.316 141.486 131.301 141.055 132.144C140.629 132.987 140.025 133.642 139.244 134.111C138.463 134.58 137.539 134.814 136.474 134.814ZM136.488 132.755C137.066 132.755 137.549 132.596 137.937 132.279C138.325 131.957 138.614 131.526 138.804 130.986C138.998 130.446 139.095 129.845 139.095 129.182C139.095 128.515 138.998 127.911 138.804 127.371C138.614 126.827 138.325 126.393 137.937 126.071C137.549 125.749 137.066 125.588 136.488 125.588C135.896 125.588 135.404 125.749 135.011 126.071C134.623 126.393 134.332 126.827 134.137 127.371C133.948 127.911 133.853 128.515 133.853 129.182C133.853 129.845 133.948 130.446 134.137 130.986C134.332 131.526 134.623 131.957 135.011 132.279C135.404 132.596 135.896 132.755 136.488 132.755ZM143.884 134.601V123.692H146.376V125.51H146.49C146.689 124.881 147.03 124.395 147.513 124.054C148 123.709 148.557 123.536 149.182 123.536C149.324 123.536 149.482 123.543 149.658 123.557C149.838 123.567 149.987 123.583 150.105 123.607V125.972C149.996 125.934 149.823 125.901 149.587 125.873C149.355 125.839 149.13 125.823 148.912 125.823C148.443 125.823 148.022 125.925 147.648 126.128C147.278 126.327 146.987 126.604 146.774 126.959C146.561 127.314 146.455 127.724 146.455 128.188V134.601H143.884ZM155.412 134.793C154.555 134.793 153.788 134.573 153.111 134.132C152.434 133.692 151.899 133.053 151.506 132.215C151.113 131.377 150.917 130.359 150.917 129.161C150.917 127.949 151.115 126.926 151.513 126.093C151.916 125.255 152.458 124.623 153.14 124.196C153.821 123.765 154.581 123.55 155.419 123.55C156.059 123.55 156.584 123.659 156.996 123.877C157.408 124.09 157.735 124.348 157.976 124.651C158.218 124.949 158.405 125.231 158.537 125.496H158.644V120.056H161.222V134.601H158.694V132.882H158.537C158.405 133.148 158.213 133.429 157.962 133.728C157.711 134.021 157.38 134.272 156.968 134.48C156.556 134.689 156.037 134.793 155.412 134.793ZM156.13 132.684C156.674 132.684 157.138 132.537 157.522 132.243C157.905 131.945 158.196 131.531 158.395 131C158.594 130.47 158.694 129.852 158.694 129.147C158.694 128.441 158.594 127.828 158.395 127.307C158.201 126.786 157.912 126.381 157.529 126.093C157.15 125.804 156.684 125.659 156.13 125.659C155.557 125.659 155.078 125.809 154.695 126.107C154.311 126.405 154.023 126.817 153.828 127.343C153.634 127.868 153.537 128.47 153.537 129.147C153.537 129.828 153.634 130.437 153.828 130.972C154.027 131.502 154.319 131.921 154.702 132.229C155.09 132.532 155.566 132.684 156.13 132.684ZM168.791 134.814C167.697 134.814 166.753 134.587 165.957 134.132C165.167 133.673 164.558 133.024 164.132 132.186C163.706 131.344 163.493 130.352 163.493 129.211C163.493 128.088 163.706 127.104 164.132 126.256C164.563 125.404 165.164 124.741 165.936 124.267C166.708 123.789 167.615 123.55 168.656 123.55C169.329 123.55 169.963 123.659 170.56 123.877C171.161 124.09 171.691 124.421 172.151 124.871C172.615 125.321 172.979 125.894 173.244 126.59C173.509 127.281 173.642 128.105 173.642 129.061V129.85H164.7V128.117H171.178C171.173 127.624 171.066 127.186 170.858 126.803C170.65 126.415 170.358 126.109 169.984 125.887C169.615 125.664 169.184 125.553 168.692 125.553C168.166 125.553 167.705 125.681 167.307 125.936C166.909 126.187 166.599 126.519 166.376 126.931C166.159 127.338 166.047 127.785 166.043 128.273V129.786C166.043 130.42 166.159 130.965 166.391 131.419C166.623 131.869 166.947 132.215 167.364 132.456C167.78 132.693 168.268 132.811 168.827 132.811C169.201 132.811 169.539 132.759 169.842 132.655C170.145 132.546 170.408 132.388 170.631 132.179C170.853 131.971 171.021 131.713 171.135 131.405L173.536 131.675C173.384 132.31 173.095 132.864 172.669 133.337C172.248 133.806 171.708 134.17 171.05 134.431C170.392 134.686 169.639 134.814 168.791 134.814ZM179.865 134.793C179.008 134.793 178.241 134.573 177.564 134.132C176.887 133.692 176.352 133.053 175.959 132.215C175.566 131.377 175.37 130.359 175.37 129.161C175.37 127.949 175.569 126.926 175.966 126.093C176.369 125.255 176.911 124.623 177.593 124.196C178.275 123.765 179.034 123.55 179.873 123.55C180.512 123.55 181.037 123.659 181.449 123.877C181.861 124.09 182.188 124.348 182.429 124.651C182.671 124.949 182.858 125.231 182.99 125.496H183.097V120.056H185.675V134.601H183.147V132.882H182.99C182.858 133.148 182.666 133.429 182.415 133.728C182.164 134.021 181.833 134.272 181.421 134.48C181.009 134.689 180.49 134.793 179.865 134.793ZM180.583 132.684C181.127 132.684 181.591 132.537 181.975 132.243C182.358 131.945 182.65 131.531 182.848 131C183.047 130.47 183.147 129.852 183.147 129.147C183.147 128.441 183.047 127.828 182.848 127.307C182.654 126.786 182.365 126.381 181.982 126.093C181.603 125.804 181.137 125.659 180.583 125.659C180.01 125.659 179.532 125.809 179.148 126.107C178.765 126.405 178.476 126.817 178.282 127.343C178.087 127.868 177.99 128.47 177.99 129.147C177.99 129.828 178.087 130.437 178.282 130.972C178.48 131.502 178.772 131.921 179.155 132.229C179.543 132.532 180.019 132.684 180.583 132.684ZM201.998 126.576L199.654 126.831C199.588 126.595 199.472 126.372 199.306 126.164C199.145 125.955 198.927 125.787 198.653 125.659C198.378 125.532 198.042 125.468 197.644 125.468C197.109 125.468 196.659 125.584 196.295 125.816C195.935 126.048 195.757 126.348 195.762 126.718C195.757 127.035 195.873 127.293 196.11 127.492C196.352 127.691 196.749 127.854 197.303 127.982L199.164 128.38C200.196 128.602 200.963 128.955 201.465 129.438C201.972 129.921 202.228 130.553 202.232 131.334C202.228 132.021 202.026 132.627 201.629 133.152C201.236 133.673 200.689 134.08 199.988 134.374C199.287 134.667 198.482 134.814 197.573 134.814C196.238 134.814 195.163 134.535 194.349 133.976C193.534 133.413 193.049 132.629 192.893 131.625L195.4 131.384C195.513 131.876 195.755 132.248 196.124 132.499C196.494 132.75 196.974 132.875 197.566 132.875C198.177 132.875 198.667 132.75 199.036 132.499C199.41 132.248 199.597 131.938 199.597 131.569C199.597 131.256 199.477 130.998 199.235 130.794C198.998 130.591 198.629 130.435 198.127 130.326L196.266 129.935C195.22 129.717 194.446 129.35 193.944 128.834C193.442 128.313 193.193 127.655 193.198 126.86C193.193 126.187 193.376 125.605 193.745 125.113C194.119 124.615 194.638 124.232 195.3 123.962C195.968 123.687 196.737 123.55 197.609 123.55C198.887 123.55 199.893 123.822 200.627 124.367C201.366 124.911 201.823 125.648 201.998 126.576ZM211.305 130.013V123.692H213.876V134.601H211.384V132.662H211.27C211.024 133.273 210.619 133.773 210.055 134.161C209.497 134.549 208.808 134.743 207.989 134.743C207.274 134.743 206.642 134.585 206.092 134.267C205.548 133.945 205.122 133.479 204.814 132.868C204.506 132.253 204.352 131.509 204.352 130.638V123.692H206.923V130.24C206.923 130.932 207.113 131.481 207.491 131.888C207.87 132.295 208.367 132.499 208.983 132.499C209.362 132.499 209.729 132.407 210.084 132.222C210.439 132.037 210.73 131.763 210.957 131.398C211.189 131.029 211.305 130.567 211.305 130.013ZM221.279 134.814C220.19 134.814 219.255 134.575 218.473 134.097C217.697 133.619 217.098 132.958 216.676 132.115C216.26 131.268 216.051 130.292 216.051 129.189C216.051 128.081 216.265 127.104 216.691 126.256C217.117 125.404 217.718 124.741 218.495 124.267C219.276 123.789 220.199 123.55 221.265 123.55C222.15 123.55 222.934 123.713 223.615 124.04C224.302 124.362 224.849 124.819 225.256 125.411C225.663 125.998 225.895 126.685 225.952 127.471H223.495C223.395 126.945 223.158 126.507 222.784 126.157C222.415 125.801 221.92 125.624 221.3 125.624C220.775 125.624 220.313 125.766 219.915 126.05C219.517 126.329 219.207 126.732 218.985 127.257C218.767 127.783 218.658 128.413 218.658 129.147C218.658 129.89 218.767 130.529 218.985 131.064C219.203 131.595 219.508 132.004 219.901 132.293C220.299 132.577 220.765 132.719 221.3 132.719C221.679 132.719 222.017 132.648 222.316 132.506C222.619 132.359 222.872 132.149 223.076 131.874C223.279 131.599 223.419 131.265 223.495 130.873H225.952C225.891 131.644 225.663 132.328 225.27 132.925C224.877 133.517 224.342 133.981 223.665 134.317C222.988 134.649 222.193 134.814 221.279 134.814ZM232.822 134.814C231.733 134.814 230.798 134.575 230.016 134.097C229.24 133.619 228.641 132.958 228.219 132.115C227.803 131.268 227.594 130.292 227.594 129.189C227.594 128.081 227.808 127.104 228.234 126.256C228.66 125.404 229.261 124.741 230.038 124.267C230.819 123.789 231.742 123.55 232.808 123.55C233.693 123.55 234.477 123.713 235.158 124.04C235.845 124.362 236.392 124.819 236.799 125.411C237.206 125.998 237.438 126.685 237.495 127.471H235.038C234.938 126.945 234.701 126.507 234.327 126.157C233.958 125.801 233.463 125.624 232.843 125.624C232.317 125.624 231.856 125.766 231.458 126.05C231.06 126.329 230.75 126.732 230.528 127.257C230.31 127.783 230.201 128.413 230.201 129.147C230.201 129.89 230.31 130.529 230.528 131.064C230.746 131.595 231.051 132.004 231.444 132.293C231.842 132.577 232.308 132.719 232.843 132.719C233.222 132.719 233.56 132.648 233.859 132.506C234.162 132.359 234.415 132.149 234.619 131.874C234.822 131.599 234.962 131.265 235.038 130.873H237.495C237.433 131.644 237.206 132.328 236.813 132.925C236.42 133.517 235.885 133.981 235.208 134.317C234.531 134.649 233.736 134.814 232.822 134.814ZM244.436 134.814C243.342 134.814 242.397 134.587 241.602 134.132C240.811 133.673 240.203 133.024 239.777 132.186C239.35 131.344 239.137 130.352 239.137 129.211C239.137 128.088 239.35 127.104 239.777 126.256C240.208 125.404 240.809 124.741 241.581 124.267C242.352 123.789 243.259 123.55 244.301 123.55C244.973 123.55 245.608 123.659 246.204 123.877C246.806 124.09 247.336 124.421 247.795 124.871C248.259 125.321 248.624 125.894 248.889 126.59C249.154 127.281 249.287 128.105 249.287 129.061V129.85H240.345V128.117H246.822C246.817 127.624 246.711 127.186 246.502 126.803C246.294 126.415 246.003 126.109 245.629 125.887C245.26 125.664 244.829 125.553 244.336 125.553C243.811 125.553 243.349 125.681 242.951 125.936C242.554 126.187 242.243 126.519 242.021 126.931C241.803 127.338 241.692 127.785 241.687 128.273V129.786C241.687 130.42 241.803 130.965 242.035 131.419C242.267 131.869 242.592 132.215 243.008 132.456C243.425 132.693 243.913 132.811 244.471 132.811C244.845 132.811 245.184 132.759 245.487 132.655C245.79 132.546 246.053 132.388 246.275 132.179C246.498 131.971 246.666 131.713 246.779 131.405L249.18 131.675C249.029 132.31 248.74 132.864 248.314 133.337C247.892 133.806 247.352 134.17 246.694 134.431C246.036 134.686 245.283 134.814 244.436 134.814ZM260.084 126.576L257.74 126.831C257.674 126.595 257.558 126.372 257.392 126.164C257.231 125.955 257.013 125.787 256.739 125.659C256.464 125.532 256.128 125.468 255.73 125.468C255.195 125.468 254.745 125.584 254.381 125.816C254.021 126.048 253.843 126.348 253.848 126.718C253.843 127.035 253.959 127.293 254.196 127.492C254.438 127.691 254.835 127.854 255.389 127.982L257.25 128.38C258.282 128.602 259.049 128.955 259.551 129.438C260.058 129.921 260.313 130.553 260.318 131.334C260.313 132.021 260.112 132.627 259.714 133.152C259.321 133.673 258.775 134.08 258.074 134.374C257.373 134.667 256.568 134.814 255.659 134.814C254.324 134.814 253.249 134.535 252.435 133.976C251.62 133.413 251.135 132.629 250.979 131.625L253.486 131.384C253.599 131.876 253.841 132.248 254.21 132.499C254.58 132.75 255.06 132.875 255.652 132.875C256.263 132.875 256.753 132.75 257.122 132.499C257.496 132.248 257.683 131.938 257.683 131.569C257.683 131.256 257.563 130.998 257.321 130.794C257.084 130.591 256.715 130.435 256.213 130.326L254.352 129.935C253.306 129.717 252.532 129.35 252.03 128.834C251.528 128.313 251.279 127.655 251.284 126.86C251.279 126.187 251.462 125.605 251.831 125.113C252.205 124.615 252.723 124.232 253.386 123.962C254.054 123.687 254.823 123.55 255.695 123.55C256.973 123.55 257.979 123.822 258.713 124.367C259.452 124.911 259.909 125.648 260.084 126.576ZM271.06 126.576L268.717 126.831C268.65 126.595 268.534 126.372 268.369 126.164C268.208 125.955 267.99 125.787 267.715 125.659C267.441 125.532 267.104 125.468 266.707 125.468C266.172 125.468 265.722 125.584 265.357 125.816C264.997 126.048 264.82 126.348 264.825 126.718C264.82 127.035 264.936 127.293 265.173 127.492C265.414 127.691 265.812 127.854 266.366 127.982L268.227 128.38C269.259 128.602 270.026 128.955 270.528 129.438C271.034 129.921 271.29 130.553 271.295 131.334C271.29 132.021 271.089 132.627 270.691 133.152C270.298 133.673 269.751 134.08 269.05 134.374C268.35 134.667 267.545 134.814 266.636 134.814C265.3 134.814 264.226 134.535 263.411 133.976C262.597 133.413 262.112 132.629 261.955 131.625L264.462 131.384C264.576 131.876 264.817 132.248 265.187 132.499C265.556 132.75 266.037 132.875 266.629 132.875C267.239 132.875 267.729 132.75 268.099 132.499C268.473 132.248 268.66 131.938 268.66 131.569C268.66 131.256 268.539 130.998 268.298 130.794C268.061 130.591 267.692 130.435 267.19 130.326L265.329 129.935C264.282 129.717 263.508 129.35 263.006 128.834C262.504 128.313 262.256 127.655 262.261 126.86C262.256 126.187 262.438 125.605 262.808 125.113C263.182 124.615 263.7 124.232 264.363 123.962C265.031 123.687 265.8 123.55 266.671 123.55C267.95 123.55 268.956 123.822 269.69 124.367C270.428 124.911 270.885 125.648 271.06 126.576ZM278.94 123.692V125.681H272.491V123.692H278.94ZM274.104 134.601V122.662C274.104 121.928 274.255 121.318 274.558 120.83C274.866 120.342 275.278 119.978 275.794 119.736C276.31 119.495 276.883 119.374 277.513 119.374C277.958 119.374 278.353 119.409 278.699 119.48C279.045 119.551 279.3 119.615 279.466 119.672L278.955 121.661C278.846 121.628 278.708 121.595 278.543 121.561C278.377 121.524 278.192 121.505 277.989 121.505C277.51 121.505 277.172 121.621 276.973 121.853C276.779 122.08 276.682 122.407 276.682 122.833V134.601H274.104ZM287.907 130.013V123.692H290.478V134.601H287.985V132.662H287.871C287.625 133.273 287.22 133.773 286.657 134.161C286.098 134.549 285.409 134.743 284.59 134.743C283.875 134.743 283.243 134.585 282.694 134.267C282.149 133.945 281.723 133.479 281.415 132.868C281.108 132.253 280.954 131.509 280.954 130.638V123.692H283.525V130.24C283.525 130.932 283.714 131.481 284.093 131.888C284.472 132.295 284.969 132.499 285.585 132.499C285.963 132.499 286.33 132.407 286.685 132.222C287.04 132.037 287.332 131.763 287.559 131.398C287.791 131.029 287.907 130.567 287.907 130.013ZM295.693 120.056V134.601H293.122V120.056H295.693ZM300.908 120.056V134.601H298.337V120.056H300.908ZM305.15 138.692C304.799 138.692 304.475 138.664 304.176 138.607C303.883 138.555 303.649 138.493 303.473 138.422L304.07 136.419C304.444 136.528 304.778 136.58 305.071 136.576C305.365 136.571 305.623 136.479 305.846 136.299C306.073 136.123 306.265 135.83 306.421 135.418L306.641 134.828L302.685 123.692H305.412L307.926 131.931H308.04L310.561 123.692H313.296L308.928 135.922C308.724 136.5 308.454 136.995 308.118 137.407C307.782 137.823 307.37 138.14 306.882 138.358C306.4 138.581 305.822 138.692 305.15 138.692Z" fill="#6ECB4D"/>
</svg>
